<?xml version="1.0" encoding="utf-8"?>
<!-- Generator: Adobe Illustrator 20.1.0, SVG Export Plug-In . SVG Version: 6.00 Build 0)  -->
<svg version="1.1" id="Layer_1" xmlns="http://www.w3.org/2000/svg" xmlns:xlink="http://www.w3.org/1999/xlink" x="0px" y="0px"
	 viewBox="0 0 284.8 121.7" style="enable-background:new 0 0 284.8 121.7;" xml:space="preserve">
<style type="text/css">
	.st0{fill:#FFDE33;}
	.st1{fill:#5BADCD;}
	.st2{fill:#6BC5E0;}
	.st3{fill:#FFFFFF;}
</style>
<polygon class="st0" points="69.5,120.4 140.9,1 212.2,120.4 "/>
<polygon class="st1" points="140.9,60.7 176.6,1 212.2,60.7 "/>
<polygon class="st2" points="140.9,60.7 140.9,60.7 140.9,60.7 105.2,1 69.5,60.7 69.5,60.7 69.5,60.7 69.5,60.7 105.2,120.5 
	105.2,120.4 176.6,120.4 "/>
<path class="st3" d="M34.6,96.4h-9.2l-1.6-3.8H13.5l-1.3,3.8H3.7C7.1,85.2,11,72.5,14.4,60.8h6.1L34.6,96.4z M17.8,71.9
	c-0.7,2.5-1.5,4.7-3.6,12.6h7.7L17.8,71.9z"/>
<polygon class="st3" points="75.9,96.4 50,96.4 50,60.8 58.3,60.8 58.3,88 75.9,88 "/>
<path class="st3" d="M101.3,60.8c6.6,0,11.3,3.7,11.5,10.5c-0.1,2.9-1.6,5.2-3.7,7.4c2.3,2.5,4.2,4.9,4.2,8.5
	c0,8.7-7.4,9.3-13.9,9.3h-8V60.7L101.3,60.8z M98.4,89.4h1.9c3.3,0,5.8-0.6,5.8-3.3c0-2.8-1.2-4-7.7-4L98.4,89.4z M98.5,74.5h1.1
	c3.2,0,5.4-0.5,5.4-3.4c0-2.8-2-3.8-4.4-3.8c-0.7,0-1.4,0.1-2.1,0.2V74.5z"/>
<path class="st3" d="M157.7,96.4h-9.2l-1.6-3.8h-10.3l-1.3,3.8h-8.5c3.4-11.1,7.2-23.9,10.7-35.6h6.1L157.7,96.4z M140.9,71.9
	c-0.7,2.5-1.5,4.7-3.6,12.6h7.7L140.9,71.9z"/>
<polygon class="st3" points="203.7,96.4 196,96.4 182.1,75.7 182.1,96.4 174.3,96.4 174.3,60.8 182.3,60.8 196.2,82.6 196.2,60.8 
	203.7,60.8 "/>
<rect x="221.4" y="60.8" class="st3" width="7.7" height="35.6"/>
<path class="st3" d="M276.2,96.4H267l-1.6-3.8h-10.3l-1.3,3.8h-8.5c3.4-11.1,7.2-23.9,10.7-35.6h6.1L276.2,96.4z M259.4,71.9
	c-0.7,2.5-1.5,4.7-3.6,12.6h7.7L259.4,71.9z"/>
<polygon class="st3" points="274,61.4 274,66.2 273.2,66.2 273.2,61.4 271.5,61.4 271.5,60.7 275.7,60.7 275.8,61.4 "/>
<polygon class="st3" points="281.8,66.2 281.5,61.8 279.7,66.2 279.1,66.2 277.4,61.8 277.1,66.2 276.4,66.2 276.8,60.7 277.7,60.7 
	279.5,65.2 281.2,60.7 282.1,60.7 282.5,66.2 "/>
</svg>
