<?xml version="1.0" encoding="utf-8"?>
<!-- Generator: Adobe Illustrator 18.0.0, SVG Export Plug-In . SVG Version: 6.00 Build 0)  -->
<!DOCTYPE svg PUBLIC "-//W3C//DTD SVG 1.1//EN" "http://www.w3.org/Graphics/SVG/1.1/DTD/svg11.dtd">
<svg version="1.1" id="Layer_1" xmlns="http://www.w3.org/2000/svg" xmlns:xlink="http://www.w3.org/1999/xlink" x="0px" y="0px"
	 viewBox="0 0 284.8 155.5" enable-background="new 0 0 284.8 155.5" xml:space="preserve">
<path fill="#FFFFFF" d="M44.9,148.6c-0.3,0.9-0.8,1.6-1.5,2.2c-1.3,1.2-3,1.8-5,1.8c-2.2,0-3.9-0.7-5.3-2.1
	c-1.4-1.4-2.1-3.2-2.1-5.3c0-2.1,0.7-3.9,2-5.3c1.4-1.4,3.1-2.1,5.1-2.1c1.1,0,2.1,0.2,3.2,0.7c0.2,0.1,0.5,0.2,0.7,0.4
	c0.2,0.1,0.4,0.3,0.6,0.4v-0.6h2.1v4.7h-1.9c-0.2-0.7-0.5-1.3-0.8-1.7c-0.3-0.4-0.6-0.8-1-1c-0.9-0.6-1.8-0.8-2.8-0.8
	c-1.4,0-2.6,0.5-3.5,1.4c-0.9,1-1.4,2.2-1.4,3.7c0,0.8,0.1,1.5,0.4,2.1c0.2,0.6,0.6,1.2,1.1,1.6c0.9,1,2.2,1.4,3.7,1.4
	c0.6,0,1.2-0.1,1.7-0.2c0.5-0.2,1-0.4,1.5-0.8c0.7-0.5,1.2-1.2,1.4-2h-5.3v-2.1h7.7C45.4,146.7,45.2,147.8,44.9,148.6"/>
<path fill="#FFFFFF" d="M61.2,150.6c-1.4,1.4-3.1,2.1-5.2,2.1c-2.1,0-3.8-0.7-5.2-2.1c-1.4-1.4-2-3.2-2-5.3c0-2.1,0.7-3.9,2-5.3
	c1.4-1.4,3.1-2.1,5.2-2.1c2.1,0,3.8,0.7,5.2,2.1c1.4,1.4,2,3.2,2,5.3C63.2,147.4,62.5,149.2,61.2,150.6 M59.5,141.6
	c-0.9-1-2.1-1.4-3.5-1.4c-1.4,0-2.6,0.5-3.5,1.5c-0.9,1-1.4,2.2-1.4,3.7c0,1.5,0.5,2.8,1.4,3.7c0.9,1,2.1,1.5,3.5,1.5
	c1.4,0,2.6-0.5,3.5-1.4c0.9-1,1.4-2.2,1.4-3.7C60.9,143.8,60.4,142.6,59.5,141.6"/>
<polygon fill="#FFFFFF" points="83.6,140.3 79.9,146.2 79.9,151 79.9,152.5 75.7,152.5 75.7,150.4 77.6,150.4 77.6,146.2 
	73.8,140.3 71.9,140.3 71.9,138.2 75.2,138.2 75.8,139 78.8,143.9 81.1,140.3 79.9,140.3 79.9,138.2 85.4,138.2 85.4,140.3 "/>
<path fill="#FFFFFF" d="M99,150.6c-1.4,1.4-3.1,2.1-5.2,2.1c-2.1,0-3.8-0.7-5.2-2.1c-1.4-1.4-2-3.2-2-5.3c0-2.1,0.7-3.9,2-5.3
	c1.4-1.4,3.1-2.1,5.2-2.1c2.1,0,3.8,0.7,5.2,2.1c1.4,1.4,2,3.2,2,5.3C101.1,147.4,100.4,149.2,99,150.6 M97.4,141.6
	c-0.9-1-2.1-1.4-3.5-1.4c-1.4,0-2.6,0.5-3.5,1.5c-0.9,1-1.4,2.2-1.4,3.7c0,1.5,0.5,2.8,1.4,3.7c0.9,1,2.1,1.5,3.5,1.5
	c1.4,0,2.6-0.5,3.5-1.4c0.9-1,1.4-2.2,1.4-3.7C98.7,143.8,98.3,142.6,97.4,141.6"/>
<path fill="#FFFFFF" d="M115.4,140.3v7.7c0,0.7-0.1,1.4-0.3,2c-0.2,0.6-0.6,1.1-1,1.5c-0.5,0.4-1,0.7-1.6,0.9
	c-0.6,0.2-1.3,0.3-2.1,0.3s-1.5-0.1-2.1-0.3c-0.6-0.2-1.2-0.5-1.6-0.9c-0.5-0.4-0.8-0.9-1-1.5c-0.2-0.6-0.3-1.3-0.3-2v-7.7h-1.7
	v-2.1h5.6v2.1h-1.7v7.8c0,0.4,0.1,0.8,0.2,1.1c0.1,0.3,0.3,0.5,0.5,0.7c0.2,0.2,0.5,0.4,0.8,0.5s0.8,0.2,1.3,0.2
	c0.5,0,1-0.1,1.3-0.2c0.3-0.1,0.6-0.3,0.8-0.4c0.2-0.2,0.4-0.4,0.5-0.7c0.1-0.3,0.2-0.6,0.2-1.1v-8.5v-1.5h4v2.1H115.4z"/>
<path fill="#FFFFFF" d="M127.2,152.5l-2.9-6.5h-1.9v6.5h-2.3v-12.2h-1.9v-2.1h7c0.6,0,1.1,0.1,1.6,0.2c0.5,0.2,0.9,0.4,1.3,0.8
	c0.8,0.7,1.2,1.6,1.2,2.7c0,0.5-0.1,0.9-0.2,1.4c-0.1,0.4-0.4,0.8-0.7,1.2c-0.2,0.3-0.5,0.5-0.8,0.7c-0.3,0.2-0.7,0.4-1.1,0.5
	l2.2,4.7h1.9v2.1H127.2z M126.6,140.8c-0.2-0.2-0.4-0.3-0.6-0.4c-0.3-0.1-0.6-0.1-0.9-0.1h-2.6v3.6h2.2c0.5,0,0.8,0,1.1-0.1
	c0.3-0.1,0.5-0.2,0.7-0.4c0.2-0.1,0.3-0.3,0.4-0.5c0.1-0.2,0.1-0.5,0.1-0.8C127.1,141.5,126.9,141.1,126.6,140.8"/>
<path fill="#FFFFFF" d="M151,150.6c-1.4,1.4-3.1,2.1-5.2,2.1c-2.1,0-3.8-0.7-5.2-2.1c-1.4-1.4-2-3.2-2-5.3c0-2.1,0.7-3.9,2-5.3
	c1.4-1.4,3.1-2.1,5.2-2.1c2.1,0,3.8,0.7,5.2,2.1c1.4,1.4,2,3.2,2,5.3C153,147.4,152.3,149.2,151,150.6 M149.3,141.6
	c-0.9-1-2.1-1.4-3.5-1.4c-1.4,0-2.6,0.5-3.5,1.5c-0.9,1-1.4,2.2-1.4,3.7c0,1.5,0.5,2.8,1.4,3.7c0.9,1,2.1,1.5,3.5,1.5
	c1.4,0,2.6-0.5,3.5-1.4c0.9-1,1.4-2.2,1.4-3.7C150.7,143.8,150.2,142.6,149.3,141.6"/>
<polygon fill="#FFFFFF" points="173.4,140.3 169.8,152.6 168,152.6 165,141.8 162.2,152.6 160.4,152.6 156.7,140.3 154.9,140.3 
	154.9,138.2 158.5,138.2 158.9,139.5 161.4,148.2 163.6,139.5 163.9,138.2 166.2,138.2 166.6,139.5 169,148.2 171.2,140.3 
	169.7,140.3 169.7,138.2 175.2,138.2 175.2,140.3 "/>
<path fill="#FFFFFF" d="M189.5,140.3v12.4h-2l-6.9-10.6v8.3h1.8v2.1h-4V151v-10.7h-1.8v-2.1h4c0.7,1.2,1.4,2.2,2,3.2
	c0.6,1,1.3,1.9,1.9,2.9c0.9,1.3,1.8,2.7,2.7,4v-8.7v-1.5h3.8v2.1H189.5z"/>
<polygon fill="#FFFFFF" points="217,140.3 213.4,152.6 211.7,152.6 208.7,141.8 205.9,152.6 204.1,152.6 200.4,140.3 198.6,140.3 
	198.6,138.2 202.2,138.2 202.5,139.5 205,148.2 207.2,139.5 207.5,138.2 209.9,138.2 210.2,139.5 212.6,148.2 214.8,140.3 
	213.3,140.3 213.3,138.2 218.8,138.2 218.8,140.3 "/>
<path fill="#FFFFFF" d="M229.3,152.5v-2.1h1.4l-1-2.9h-4.4l-1.2,3.5v1.4h-4v-2.1h1.8l3.8-10.9l0.4-1.3h4.8v2.1h-1.4l3.6,10.1h1.8
	v2.1H229.3z M227.5,141.1l-1.5,4.3h2.9L227.5,141.1z"/>
<polygon fill="#FFFFFF" points="247.2,140.3 243.5,146.2 243.5,151 243.5,152.5 239.3,152.5 239.3,150.4 241.2,150.4 241.2,146.2 
	237.4,140.3 235.5,140.3 235.5,138.2 238.8,138.2 239.4,139 242.4,143.9 244.7,140.3 243.5,140.3 243.5,138.2 249,138.2 249,140.3 
	"/>
<polygon fill="#FFDE33" points="69.5,123.2 140.9,3.8 212.2,123.2 "/>
<polygon fill="#5BADCD" points="140.9,63.5 176.6,3.8 212.2,63.5 "/>
<polygon fill="#6BC5E0" points="140.9,63.5 140.9,63.5 140.9,63.5 105.2,3.8 69.5,63.5 69.5,63.5 69.5,63.5 69.5,63.5 105.2,123.3 
	105.2,123.2 176.6,123.2 "/>
<path fill="#FFFFFF" d="M34.6,99.2h-9.2l-1.6-3.8H13.5l-1.3,3.8H3.7C7.1,88,11,75.3,14.4,63.6h6.1L34.6,99.2z M17.8,74.7
	c-0.7,2.5-1.5,4.7-3.6,12.6h7.7L17.8,74.7z"/>
<polygon fill="#FFFFFF" points="75.9,99.2 50,99.2 50,63.6 58.3,63.6 58.3,90.8 75.9,90.8 "/>
<path fill="#FFFFFF" d="M101.3,63.6c6.6,0,11.3,3.7,11.5,10.5c-0.1,2.9-1.6,5.2-3.7,7.4c2.3,2.5,4.2,4.9,4.2,8.5
	c0,8.7-7.4,9.3-13.9,9.3h-8V63.5L101.3,63.6z M98.4,92.2h1.9c3.3,0,5.8-0.6,5.8-3.3c0-2.8-1.2-4-7.7-4L98.4,92.2z M98.5,77.3h1.1
	c3.2,0,5.4-0.5,5.4-3.4c0-2.8-2-3.8-4.4-3.8c-0.7,0-1.4,0.1-2.1,0.2V77.3z"/>
<path fill="#FFFFFF" d="M157.7,99.2h-9.2l-1.6-3.8h-10.3l-1.3,3.8h-8.5c3.4-11.1,7.2-23.9,10.7-35.6h6.1L157.7,99.2z M140.9,74.7
	c-0.7,2.5-1.5,4.7-3.6,12.6h7.7L140.9,74.7z"/>
<polygon fill="#FFFFFF" points="203.7,99.2 196,99.2 182.1,78.5 182.1,99.2 174.3,99.2 174.3,63.6 182.3,63.6 196.2,85.4 
	196.2,63.6 203.7,63.6 "/>
<rect x="221.4" y="63.6" fill="#FFFFFF" width="7.7" height="35.6"/>
<path fill="#FFFFFF" d="M276.2,99.2H267l-1.6-3.8h-10.3l-1.3,3.8h-8.5c3.4-11.1,7.2-23.9,10.7-35.6h6.1L276.2,99.2z M259.4,74.7
	c-0.7,2.5-1.5,4.7-3.6,12.6h7.7L259.4,74.7z"/>
<polygon fill="#FFFFFF" points="274,64.2 274,69 273.2,69 273.2,64.2 271.5,64.2 271.5,63.5 275.7,63.5 275.8,64.2 "/>
<polygon fill="#FFFFFF" points="281.8,69 281.5,64.6 279.7,69 279.1,69 277.4,64.6 277.1,69 276.4,69 276.8,63.5 277.7,63.5 
	279.5,68 281.2,63.5 282.1,63.5 282.5,69 "/>
</svg>
